<?xml version="1.0" encoding="us-ascii" standalone="no"?><svg xmlns="http://www.w3.org/2000/svg" xmlns:xlink="http://www.w3.org/1999/xlink" contentStyleType="text/css" height="738px" preserveAspectRatio="none" style="width:896px;height:738px;background:#FFFFFF;" version="1.1" viewBox="0 0 896 738" width="896px" zoomAndPan="magnify"><defs/><g><!--cluster Local--><g id="cluster_Local"><polygon fill="none" points="16,16,26,6,879,6,879,711,869,721,16,721,16,16" style="stroke:#181818;stroke-width:1.0;"/><line style="stroke:#181818;stroke-width:1.0;" x1="869" x2="879" y1="16" y2="6"/><line style="stroke:#181818;stroke-width:1.0;" x1="16" x2="869" y1="16" y2="16"/><line style="stroke:#181818;stroke-width:1.0;" x1="869" x2="869" y1="16" y2="721"/><text fill="#000000" font-family="sans-serif" font-size="14" font-weight="bold" lengthAdjust="spacing" textLength="41" x="423" y="31.9951">Local</text></g><!--cluster Ollama--><g id="cluster_Ollama"><path d="M660.3225,249.3061 C665.2313,241.3708 670.8662,241.8014 675.7612,249.3199 C679.4192,240.2916 686.7334,241.3442 691.9585,247.6661 C696.4417,238.6978 703.5668,239.2462 708.3831,247.3455 C712.3669,240.987 718.1352,239.2631 723.1772,246.1649 C726.8667,236.9709 732.1971,237.8707 738.5641,243.359 C744.3884,236.6828 749.6265,236.5128 753.8313,244.9907 C758.3662,238.4488 765.6104,237.4045 769.3845,245.7837 C773.9318,236.6421 782.4422,236.5938 787.0525,245.7227 C790.4604,239.8636 797.1274,238.7616 800.6783,245.569 C807.344,239.2786 814.7649,240.0615 818.7012,248.8346 C822.8807,241.4148 829.117,241.6534 833.0072,249.1127 C841.7407,239.9882 852.2354,241.8269 855,255 C856.1796,254.5505 856.74,255.1243 856.8071,256.2646 C864.4883,260.5318 864.7754,265.3087 857.4834,270.2976 C863.8893,274.7203 864.7362,278.9325 858.7648,284.4738 C863.9452,288.5524 864.4787,293.4611 858.6246,297.4201 C867.4684,300.1812 866.8571,308.237 861.1109,313.2847 C866.1682,317.7321 867.1411,322.3655 859.9822,325.7025 C868.6126,329.5536 868.3943,336.6792 860.7842,341.3622 C866.0274,344.9167 865.8238,350.6263 860.3845,353.8385 C865.5773,359.7429 864.6737,365.3895 857.1974,368.5491 C864.9235,374.2357 864.4631,379.259 856.019,383.6867 C863.421,393.7308 860.5029,400.6719 848,402 C849.5054,401.5982 850.7422,402.295 850.3385,404.0602 C845.6871,410.8628 839.5076,410.8371 834.8495,404.0678 C829.3463,411.7352 821.2116,411.8936 816.5522,403.1281 C813.1176,412.2679 806.432,412.917 800.8882,405.0734 C796.1819,412.7013 789.4866,412.0043 785.9437,403.9637 C781.1831,411.628 775.6822,410.3646 770.7513,404.1501 C766.257,411.2535 758.6183,411.441 753.9018,404.4152 C750.3986,411.005 743.3008,411.4587 739.1806,405.1176 C734.7037,413.18 727.2931,412.5925 723.4737,404.4792 C718.351,411.595 711.7005,410.7636 707.0135,403.9639 C700.9606,411.3305 695.1226,409.9569 690.2247,402.6431 C685.7739,408.6456 680.8324,408.804 676.1632,402.9011 C665.386,413.5132 654.6892,408.0739 651.5,395 C652.7659,395.0717 653.6878,395.8702 652.8575,397.2224 C646.1494,393.7211 645.7069,387.9055 651.241,383.0117 C643.4826,379.0886 642.9719,373.948 649.561,368.3778 C643.4883,363.9345 642.5061,359.1665 649.202,354.3953 C640.5185,351.7441 640.7132,345.2332 646.4129,339.8281 C639.8859,337.1892 638.7174,331.3648 643.5842,326.3369 C636.4577,320.4173 638.1994,315.154 645.939,311.6119 C640.1707,307.0323 640.4507,303.3248 646.6054,299.3957 C640.0436,293.5215 641.0323,288.4604 649.2192,285.3263 C642.027,279.1013 643.0074,272.2063 652.2868,269.0943 C644.1343,260.1425 646.7933,251.1024 658.5,248 C659.8255,247.4531 660.3147,248.0144 660.3225,249.3061 " fill="none" style="stroke:#181818;stroke-width:1.0;"/><text fill="#000000" font-family="sans-serif" font-size="14" font-weight="bold" lengthAdjust="spacing" textLength="52" x="727.25" y="265.9951">Ollama</text></g><!--cluster SmartCompiler--><g id="cluster_SmartCompiler"><path d="M362.5,54 L479.5,54 A3.75,3.75 0 0 1 482,56.5 L489,76.2969 L599.5,76.2969 A2.5,2.5 0 0 1 602,78.7969 L602,271.5 A2.5,2.5 0 0 1 599.5,274 L362.5,274 A2.5,2.5 0 0 1 360,271.5 L360,56.5 A2.5,2.5 0 0 1 362.5,54 " fill="none" style="stroke:#000000;stroke-width:1.5;"/><line style="stroke:#000000;stroke-width:1.5;" x1="360" x2="489" y1="76.2969" y2="76.2969"/><text fill="#000000" font-family="sans-serif" font-size="14" font-weight="bold" lengthAdjust="spacing" textLength="116" x="364" y="68.9951">SmartCompiler</text></g><!--cluster SmartTools--><g id="cluster_SmartTools"><path d="M42.5,323 L132.5,323 A3.75,3.75 0 0 1 135,325.5 L142,345.2969 L599.5,345.2969 A2.5,2.5 0 0 1 602,347.7969 L602,694.5 A2.5,2.5 0 0 1 599.5,697 L42.5,697 A2.5,2.5 0 0 1 40,694.5 L40,325.5 A2.5,2.5 0 0 1 42.5,323 " fill="none" style="stroke:#000000;stroke-width:1.5;"/><line style="stroke:#000000;stroke-width:1.5;" x1="40" x2="142" y1="345.2969" y2="345.2969"/><text fill="#000000" font-family="sans-serif" font-size="14" font-weight="bold" lengthAdjust="spacing" textLength="89" x="44" y="337.9951">SmartTools</text></g><!--cluster Profiler--><g id="cluster_Profiler"><rect fill="none" height="200" rx="2.5" ry="2.5" style="stroke:#181818;stroke-width:1.0;" width="295" x="275" y="465"/><rect fill="none" height="10" style="stroke:#181818;stroke-width:1.0;" width="15" x="550" y="470"/><rect fill="none" height="2" style="stroke:#181818;stroke-width:1.0;" width="4" x="548" y="472"/><rect fill="none" height="2" style="stroke:#181818;stroke-width:1.0;" width="4" x="548" y="476"/><text fill="#000000" font-family="sans-serif" font-size="14" font-weight="bold" lengthAdjust="spacing" textLength="58" x="393.5" y="490.9951">Profiler</text></g><!--entity user--><g id="elem_user"><ellipse cx="275" cy="77.5" fill="#F1F1F1" rx="8" ry="8" style="stroke:#181818;stroke-width:0.5;"/><path d="M275,85.5 L275,112.5 M262,93.5 L288,93.5 M275,112.5 L262,127.5 M275,112.5 L288,127.5 " fill="none" style="stroke:#181818;stroke-width:0.5;"/><text fill="#000000" font-family="sans-serif" font-size="14" lengthAdjust="spacing" textLength="31" x="259.5" y="141.9951">user</text></g><!--entity SmartChat--><g id="elem_SmartChat"><ellipse cx="335" cy="107" fill="#F1F1F1" rx="8" ry="8" style="stroke:#181818;stroke-width:0.5;"/><text fill="#000000" font-family="sans-serif" font-size="14" lengthAdjust="spacing" textLength="57" x="306.5" y="136.9951">CLI-Chat</text></g><text fill="#000000" font-family="sans-serif" font-size="14" lengthAdjust="spacing" textLength="65" x="629" y="218.6982">chat_port</text><rect fill="#F1F1F1" height="12" style="stroke:#181818;stroke-width:1.5;" width="12" x="655.5" y="234"/><!--entity OllamaServer--><g id="elem_OllamaServer"><rect fill="#F1F1F1" height="36.2969" rx="2.5" ry="2.5" style="stroke:#181818;stroke-width:0.5;" width="110" x="737" y="358"/><rect fill="#F1F1F1" height="5" style="stroke:#181818;stroke-width:0.5;" width="10" x="732" y="363"/><rect fill="#F1F1F1" height="5" style="stroke:#181818;stroke-width:0.5;" width="10" x="732" y="384.2969"/><text fill="#000000" font-family="sans-serif" font-size="14" lengthAdjust="spacing" textLength="90" x="747" y="380.9951">OllamaServer</text></g><!--entity SmartClient--><g id="elem_SmartClient"><rect fill="#F1F1F1" height="36.2969" rx="2.5" ry="2.5" style="stroke:#181818;stroke-width:0.5;" width="99" x="402.5" y="89"/><rect fill="#F1F1F1" height="5" style="stroke:#181818;stroke-width:0.5;" width="10" x="397.5" y="94"/><rect fill="#F1F1F1" height="5" style="stroke:#181818;stroke-width:0.5;" width="10" x="397.5" y="115.2969"/><text fill="#000000" font-family="sans-serif" font-size="14" lengthAdjust="spacing" textLength="79" x="412.5" y="111.9951">SmartClient</text></g><!--entity SmartServer--><g id="elem_SmartServer"><rect fill="#F1F1F1" height="36.2969" rx="2.5" ry="2.5" style="stroke:#181818;stroke-width:0.5;" width="104" x="429" y="222"/><rect fill="#F1F1F1" height="5" style="stroke:#181818;stroke-width:0.5;" width="10" x="424" y="227"/><rect fill="#F1F1F1" height="5" style="stroke:#181818;stroke-width:0.5;" width="10" x="424" y="248.2969"/><text fill="#000000" font-family="sans-serif" font-size="14" lengthAdjust="spacing" textLength="84" x="439" y="244.9951">SmartServer</text></g><!--entity ListTools--><g id="elem_ListTools"><ellipse cx="385" cy="240" fill="#F1F1F1" rx="8" ry="8" style="stroke:#181818;stroke-width:0.5;"/><text fill="#000000" font-family="sans-serif" font-size="14" lengthAdjust="spacing" textLength="60" x="355" y="269.9951">list_tools</text></g><!--entity ServerCallTool--><g id="elem_ServerCallTool"><ellipse cx="577" cy="240" fill="#F1F1F1" rx="8" ry="8" style="stroke:#181818;stroke-width:0.5;"/><text fill="#000000" font-family="sans-serif" font-size="14" lengthAdjust="spacing" textLength="55" x="549.5" y="269.9951">call_tool</text></g><!--entity Optimizer--><g id="elem_Optimizer"><rect fill="#F1F1F1" height="36.2969" rx="2.5" ry="2.5" style="stroke:#181818;stroke-width:0.5;" width="86" x="109" y="508"/><rect fill="#F1F1F1" height="5" style="stroke:#181818;stroke-width:0.5;" width="10" x="104" y="513"/><rect fill="#F1F1F1" height="5" style="stroke:#181818;stroke-width:0.5;" width="10" x="104" y="534.2969"/><text fill="#000000" font-family="sans-serif" font-size="14" lengthAdjust="spacing" textLength="66" x="119" y="530.9951">Optimizer</text></g><!--entity CallTool--><g id="elem_CallTool"><ellipse cx="135" cy="376" fill="#F1F1F1" rx="8" ry="8" style="stroke:#181818;stroke-width:0.5;"/><text fill="#000000" font-family="sans-serif" font-size="14" lengthAdjust="spacing" textLength="55" x="107.5" y="405.9951">call_tool</text></g><!--entity ToolScheduler--><g id="elem_ToolScheduler"><rect fill="#F1F1F1" height="36.2969" rx="2.5" ry="2.5" style="stroke:#181818;stroke-width:0.5;" width="120" x="179" y="358"/><rect fill="#F1F1F1" height="5" style="stroke:#181818;stroke-width:0.5;" width="10" x="174" y="363"/><rect fill="#F1F1F1" height="5" style="stroke:#181818;stroke-width:0.5;" width="10" x="174" y="384.2969"/><text fill="#000000" font-family="sans-serif" font-size="14" lengthAdjust="spacing" textLength="100" x="189" y="380.9951">ToolScheduler</text></g><!--entity CallOptimizer--><g id="elem_CallOptimizer"><ellipse cx="65" cy="526" fill="#F1F1F1" rx="8" ry="8" style="stroke:#181818;stroke-width:0.5;"/><text fill="#000000" font-family="sans-serif" font-size="14" lengthAdjust="spacing" textLength="22" x="54" y="555.9951">call</text></g><!--entity CallProfiler--><g id="elem_CallProfiler"><ellipse cx="239" cy="526" fill="#F1F1F1" rx="8" ry="8" style="stroke:#181818;stroke-width:0.5;"/><text fill="#000000" font-family="sans-serif" font-size="14" lengthAdjust="spacing" textLength="22" x="228" y="555.9951">call</text></g><!--entity CProfiler--><g id="elem_CProfiler"><rect fill="#F1F1F1" height="36.2969" rx="2.5" ry="2.5" style="stroke:#181818;stroke-width:0.5;" width="77" x="318.5" y="508"/><rect fill="#F1F1F1" height="5" style="stroke:#181818;stroke-width:0.5;" width="10" x="313.5" y="513"/><rect fill="#F1F1F1" height="5" style="stroke:#181818;stroke-width:0.5;" width="10" x="313.5" y="534.2969"/><text fill="#000000" font-family="sans-serif" font-size="14" lengthAdjust="spacing" textLength="57" x="328.5" y="530.9951">CProfiler</text></g><!--entity PythonProfiler--><g id="elem_PythonProfiler"><rect fill="#F1F1F1" height="36.2969" rx="2.5" ry="2.5" style="stroke:#181818;stroke-width:0.5;" width="115" x="430.5" y="508"/><rect fill="#F1F1F1" height="5" style="stroke:#181818;stroke-width:0.5;" width="10" x="425.5" y="513"/><rect fill="#F1F1F1" height="5" style="stroke:#181818;stroke-width:0.5;" width="10" x="425.5" y="534.2969"/><text fill="#000000" font-family="sans-serif" font-size="14" lengthAdjust="spacing" textLength="95" x="440.5" y="530.9951">PythonProfiler</text></g><!--entity LLMProfiler--><g id="elem_LLMProfiler"><rect fill="#F1F1F1" height="36.2969" rx="2.5" ry="2.5" style="stroke:#181818;stroke-width:0.5;" width="93" x="317.5" y="605"/><rect fill="#F1F1F1" height="5" style="stroke:#181818;stroke-width:0.5;" width="10" x="312.5" y="610"/><rect fill="#F1F1F1" height="5" style="stroke:#181818;stroke-width:0.5;" width="10" x="312.5" y="631.2969"/><text fill="#000000" font-family="sans-serif" font-size="14" lengthAdjust="spacing" textLength="73" x="327.5" y="627.9951">LLMProfiler</text></g><!--link OllamaServer to chat_port--><g id="link_OllamaServer_chat_port"><path d="M775.33,357.82 C745.55,327.12 688.8273,268.657 671.1173,250.397 " fill="none" id="OllamaServer-to-chat_port" style="stroke:#181818;stroke-width:1.0;"/><polygon fill="#181818" points="666.94,246.09,670.3346,255.3354,670.4211,249.6792,676.0773,249.7657,666.94,246.09" style="stroke:#181818;stroke-width:1.0;"/></g><!--link SmartChat to SmartClient--><g id="link_SmartChat_SmartClient"><path d="M344.14,107 C363.52,107 382.9,107 402.28,107 " fill="none" id="SmartChat-SmartClient" style="stroke:#181818;stroke-width:1.0;"/></g><!--link SmartClient to ListTools--><g id="link_SmartClient_ListTools"><path d="M443.24,125.13 C428.63,153.7 402.5522,204.6782 391.8522,225.5982 " fill="none" id="SmartClient-to-ListTools" style="stroke:#181818;stroke-width:1.0;stroke-dasharray:7.0,7.0;"/><polygon fill="#181818" points="389.12,230.94,396.7795,224.7487,391.3968,226.4885,389.6571,221.1058,389.12,230.94" style="stroke:#181818;stroke-width:1.0;"/><text fill="#000000" font-family="sans-serif" font-size="13" lengthAdjust="spacing" textLength="23" x="417" y="188.0669">use</text></g><!--link ListTools to SmartServer--><g id="link_ListTools_SmartServer"><path d="M394.38,240 C405.88,240 417.38,240 428.89,240 " fill="none" id="ListTools-SmartServer" style="stroke:#181818;stroke-width:1.0;"/></g><!--link SmartServer to ServerCallTool--><g id="link_SmartServer_ServerCallTool"><path d="M533.12,240 C544.67,240 556.21,240 567.75,240 " fill="none" id="SmartServer-ServerCallTool" style="stroke:#181818;stroke-width:1.0;"/></g><!--link SmartClient to ServerCallTool--><g id="link_SmartClient_ServerCallTool"><path d="M468.34,125.13 C495.61,153.7 545.2092,205.6779 565.1592,226.5979 " fill="none" id="SmartClient-to-ServerCallTool" style="stroke:#181818;stroke-width:1.0;stroke-dasharray:7.0,7.0;"/><polygon fill="#181818" points="569.3,230.94,565.9836,221.6663,565.8493,227.3216,560.1941,227.1874,569.3,230.94" style="stroke:#181818;stroke-width:1.0;"/><text fill="#000000" font-family="sans-serif" font-size="13" lengthAdjust="spacing" textLength="23" x="530" y="188.0669">use</text></g><!--link CallTool to ToolScheduler--><g id="link_CallTool_ToolScheduler"><path d="M144.34,376 C155.81,376 167.27,376 178.73,376 " fill="none" id="CallTool-ToolScheduler" style="stroke:#181818;stroke-width:1.0;"/></g><!--link CallOptimizer to Optimizer--><g id="link_CallOptimizer_Optimizer"><path d="M74.18,526 C85.73,526 97.28,526 108.83,526 " fill="none" id="CallOptimizer-Optimizer" style="stroke:#181818;stroke-width:1.0;"/></g><!--link CallProfiler to Profiler--><g id="link_CallProfiler_Profiler"><path d="M248.28,526 C253.975,526 259.6725,526 265.37,526 C268.2188,526 271.0675,526 273.9159,526 C274.272,526 274.628,526 274.9841,526 " fill="none" id="CallProfiler-Profiler" style="stroke:#181818;stroke-width:1.0;"/></g><!--link ToolScheduler to CallOptimizer--><g id="link_ToolScheduler_CallOptimizer"><path d="M199.9,394.15 C158.75,412.48 98.85,440.11 91,449 C73.27,469.06 68.2081,495.8207 66.4381,510.9307 " fill="none" id="ToolScheduler-to-CallOptimizer" style="stroke:#181818;stroke-width:1.0;stroke-dasharray:7.0,7.0;"/><polygon fill="#181818" points="65.74,516.89,70.7599,508.4165,66.3217,511.924,62.8143,507.4857,65.74,516.89" style="stroke:#181818;stroke-width:1.0;"/><text fill="#000000" font-family="sans-serif" font-size="13" lengthAdjust="spacing" textLength="23" x="134" y="437.0669">use</text></g><!--link ToolScheduler to CallProfiler--><g id="link_ToolScheduler_CallProfiler"><path d="M239,394.27 C239,426.29 239,487.75 239,510.96 " fill="none" id="ToolScheduler-to-CallProfiler" style="stroke:#181818;stroke-width:1.0;stroke-dasharray:7.0,7.0;"/><polygon fill="#181818" points="239,516.96,243,507.96,239,511.96,235,507.96,239,516.96" style="stroke:#181818;stroke-width:1.0;"/><text fill="#000000" font-family="sans-serif" font-size="13" lengthAdjust="spacing" textLength="23" x="240" y="437.0669">use</text></g><!--link user to SmartChat--><g id="link_user_SmartChat"><path d="M290.94,107 C302.53,107 308.12,107 319.71,107 " fill="none" id="user-to-SmartChat" style="stroke:#181818;stroke-width:1.0;"/><polygon fill="#181818" points="325.71,107,316.71,103,320.71,107,316.71,111,325.71,107" style="stroke:#181818;stroke-width:1.0;"/></g><!--link SmartClient to chat_port--><g id="link_SmartClient_chat_port"><path d="M480.6,125.18 C502.86,138.61 534.5,157.83 562,175 C597.32,197.05 634.1291,220.8805 650.2091,231.3305 " fill="none" id="SmartClient-to-chat_port" style="stroke:#181818;stroke-width:1.0;"/><polygon fill="#181818" points="655.24,234.6,649.8732,226.3418,651.0475,231.8754,645.5139,233.0497,655.24,234.6" style="stroke:#181818;stroke-width:1.0;"/></g><!--link SmartServer to chat_port--><g id="link_SmartServer_chat_port"><path d="M499.98,221.72 C516.56,207.1 542.05,187.75 568.5,179.5 C607.44,167.35 642.2811,211.4063 654.5311,228.9963 " fill="none" id="SmartServer-to-chat_port" style="stroke:#181818;stroke-width:1.0;"/><polygon fill="#181818" points="657.96,233.92,656.099,224.2486,655.1026,229.8169,649.5342,228.8205,657.96,233.92" style="stroke:#181818;stroke-width:1.0;"/></g><!--link SmartServer to CallTool--><g id="link_SmartServer_CallTool"><path d="M457.59,258.16 C444.76,266.71 428.2,276.39 412,282 C305.68,318.83 250.82,247.24 161,315 C144.14,327.72 138.9882,347.7022 136.9182,360.9222 " fill="none" id="SmartServer-to-CallTool" style="stroke:#181818;stroke-width:1.0;stroke-dasharray:7.0,7.0;"/><polygon fill="#181818" points="135.99,366.85,141.3341,358.5771,136.7635,361.9102,133.4304,357.3396,135.99,366.85" style="stroke:#181818;stroke-width:1.0;"/><text fill="#000000" font-family="sans-serif" font-size="13" lengthAdjust="spacing" textLength="23" x="382" y="303.0669">use</text></g><!--SRC=[bLJ1QiCm3BtdAqHEsw63NNVe9QT1HWlfhPHYN7SrTUpWE8DkzDydEurgfmbZFZYnz2GzFJbfpr8tpB8QkAaReuLsbRie0LsjNhDCcuE0l3ISgHn-Ci35k3CMkbROS9JQ2Nja7655-RueJipbm5geQcQTFsK15lRmnfNf3f2lb68r6vBwrHZhf0QECNl_JWvYDaHLmdu9Yx506B-siNS7Y-L4hclMxqIdfzSmVcQVs4DF6mjA5IfGuBRtA8ayTYFhhI9PgNTOpCH5gYdPkhqpHhL1jnAF6t-Qmk8OLC3s4eUo1Tfym3HJU7bPmjFpFUsR7nrXoKnCnxqaLaJzfsYAxIj7-ezbt_GYH9gl6YTh-HtpcLNZWT9WyAtvPyLFuj2fE5bqizRM7CSp3noAmRDBxUkBEnazuopBZqVFTQu9ua_z_eaSiYVTKhXlUKAxED137YcEX0g3J3EdzsSEJrNkS9mvBjpzhyD_dFS_H7fvakzsTFtcNKFbCF7RLVi5]--></g></svg>